<svg display="none" xmlns="http://www.w3.org/2000/svg">
<!-- <symbol id="twitter" viewBox="0 0 24 24">
<path d="M18.89,7.012c0.808-0.496,1.343-1.173,1.605-2.034c-0.786,0.417-1.569,0.703-2.351,0.861   c-0.703-0.756-1.593-1.14-2.66-1.14c-1.043,0-1.924,0.366-2.643,1.078c-0.715,0.717-1.076,1.588-1.076,2.605   c0,0.309,0.039,0.585,0.117,0.819C8.806,9.096,6.26,7.82,4.254,5.364c-0.34,0.601-0.51,1.213-0.51,1.846   c0,1.301,0.549,2.332,1.645,3.089c-0.625-0.053-1.176-0.211-1.645-0.47c0,0.929,0.273,1.705,0.82,2.388   c0.549,0.676,1.254,1.107,2.115,1.291c-0.312,0.08-0.641,0.118-0.979,0.118c-0.312,0-0.533-0.026-0.664-0.083   c0.23,0.757,0.664,1.371,1.291,1.841c0.625,0.472,1.344,0.721,2.152,0.743c-1.332,1.045-2.855,1.562-4.578,1.562   c-0.422,0-0.721-0.006-0.902-0.038c1.697,1.102,3.586,1.649,5.676,1.649c2.139,0,4.029-0.542,5.674-1.626   c1.645-1.078,2.859-2.408,3.639-3.974c0.784-1.564,1.172-3.192,1.172-4.892V8.34c0.758-0.57,1.371-1.212,1.84-1.921   C20.32,6.712,19.617,6.911,18.89,7.012z"/>
</symbol> -->
<symbol id="facebook" viewBox="0 0 24 24">
<path d="M13,10h3v3h-3v7h-3v-7H7v-3h3V8.745c0-1.189,0.374-2.691,1.118-3.512C11.862,4.41,12.791,4,13.904,4H16v3h-2.1   C13.402,7,13,7.402,13,7.899V10z"/>
</symbol>
<symbol id="github" viewBox="0 0 12 12">
 <path d="M6 0a6 6 0 110 12A6 6 0 016 0zm0 .98C3.243.98 1 3.223 1 6a5.02 5.02 0 003.437 4.77.594.594 0 00.045.005c.203.01.279-.129.279-.25l-.007-.854c-1.39.303-1.684-.674-1.684-.674-.227-.58-.555-.734-.555-.734-.454-.312.034-.306.034-.306.365.026.604.288.708.43l.058.088c.446.767 1.17.546 1.455.418.046-.325.174-.546.317-.672-1.11-.127-2.277-.558-2.277-2.482 0-.548.195-.996.515-1.348l-.03-.085c-.064-.203-.152-.658.079-1.244l.04-.007c.124-.016.548-.013 1.335.522A4.77 4.77 0 016 3.408c.425.002.853.058 1.252.17.955-.65 1.374-.516 1.374-.516.272.692.1 1.202.05 1.33.32.35.513.799.513 1.347 0 1.93-1.169 2.354-2.283 2.478.18.155.34.462.34.93l-.006 1.378c0 .13.085.282.323.245A5.02 5.02 0 0011 6C11 3.223 8.757.98 6 .98z"/>
</symbol>
<!-- <symbol id="instagram" viewBox="0 0 35 35">
<path d="M25.37,34.75H9.63A9.39,9.39,0,0,1,.25,25.37V9.63A9.39,9.39,0,0,1,9.63.25H25.37a9.39,9.39,0,0,1,9.38,9.38V25.37A9.39,9.39,0,0,1,25.37,34.75ZM9.63,2.75A6.89,6.89,0,0,0,2.75,9.63V25.37a6.89,6.89,0,0,0,6.88,6.88H25.37a6.89,6.89,0,0,0,6.88-6.88V9.63a6.89,6.89,0,0,0-6.88-6.88Z"/><path d="M17.5,26.53a9,9,0,1,1,9-9A9,9,0,0,1,17.5,26.53ZM17.5,11A6.53,6.53,0,1,0,24,17.5,6.54,6.54,0,0,0,17.5,11Z"/><path d="M26.52,9.84a1.5,1.5,0,0,0,0-3,1.5,1.5,0,0,0,0,3Z"/>
</symbol> -->
<symbol id="linkedin" viewBox="0 0 30 30" >
<path d="M9,25H4V10h5V25z M6.501,8C5.118,8,4,6.879,4,5.499S5.12,3,6.501,3C7.879,3,9,4.121,9,5.499C9,6.879,7.879,8,6.501,8z M27,25h-4.807v-7.3c0-1.741-0.033-3.98-2.499-3.98c-2.503,0-2.888,1.896-2.888,3.854V25H12V9.989h4.614v2.051h0.065 c0.642-1.18,2.211-2.424,4.551-2.424c4.87,0,5.77,3.109,5.77,7.151C27,16.767,27,25,27,25z"/>
</symbol>
    </svg>